<svg width="77" height="79" viewBox="0 0 77 79" fill="none" xmlns="http://www.w3.org/2000/svg">
<path d="M15.2274 26.9431C15.449 26.6091 15.8048 26.3634 16.2719 26.3844C16.9172 26.4275 17.4305 26.9602 17.4541 27.6497C17.194 40.377 23.602 50.3077 34.2216 53.5983C45.3984 57.0657 57.3571 52.0992 64.7628 40.9357L65.029 40.5345C65.4282 39.9327 66.162 39.8423 66.6966 40.197C67.2313 40.5517 67.3888 41.33 67.0341 41.8646L66.768 42.2658C58.7857 54.2985 45.8047 59.6454 33.5811 55.8685C21.8478 52.2241 14.7484 41.4498 15.0723 27.6097C15.0278 27.388 15.0942 27.1431 15.2272 26.9425L15.2274 26.9431Z" fill="white"/>
<path d="M58.0904 41.4186C58.312 41.0845 58.7345 40.8831 59.2016 40.9041C60.9593 41.0113 62.4271 40.5406 63.9827 39.9366C64.9608 39.6227 65.8722 39.2647 66.9398 39.1068C67.2734 39.0392 67.696 39.1274 67.9862 39.416C68.276 39.7043 68.4107 40.0825 68.3668 40.4384C68.1696 41.7514 67.95 42.9534 67.7299 44.1551C67.5103 45.3571 67.2902 46.5589 67.1816 47.7384C67.1385 48.3837 66.5386 48.8524 65.8267 48.765C65.1814 48.7219 64.7127 48.1221 64.8001 47.4101C64.9972 46.0971 65.2169 44.8951 65.4369 43.6934C65.5468 43.0924 65.6566 42.4914 65.7664 41.8904C65.4994 42.0022 65.1661 42.07 64.8549 42.2486C63.1877 42.8752 61.298 43.5472 59.1172 43.3519C58.4719 43.3089 57.9587 42.7762 58.0463 42.0638C57.8689 41.7527 58.0017 41.5525 58.0905 41.4187L58.0904 41.4186Z" fill="white"/>
</svg>
