<svg width="254" height="62" viewBox="0 0 254 62" fill="none" xmlns="http://www.w3.org/2000/svg">
<path d="M159.564 61.3466H151.03V44.3585H135.023L137.318 38.3592C137.946 37.092 138.868 36.4584 140.084 36.4584H149.559C149.952 36.4584 150.285 36.3198 150.56 36.0426C150.874 35.7258 151.03 35.3694 151.03 34.9734V19.7672H156.621C157.445 19.7672 158.132 20.0642 158.681 20.6582C159.27 21.2126 159.564 21.9056 159.564 22.7372V61.3466ZM132.08 61.3466H123.547V19.7672H132.08V61.3466Z" fill="url(#paint0_linear_166_131)"/>
<path d="M189.02 62C183.37 62 178.917 60.317 175.661 56.9511C172.404 53.5851 170.776 49.0708 170.776 43.4081V19.8266H179.31V43.4081C179.31 46.6156 180.192 49.1896 181.958 51.13C183.723 53.0703 186.097 54.0405 189.079 54.0405C192.1 54.0405 194.454 53.0505 196.141 51.0706C197.867 49.0906 198.73 46.5364 198.73 43.4081V19.8266H204.321C205.145 19.8266 205.832 20.1236 206.381 20.7176C206.97 21.272 207.264 21.965 207.264 22.7966V43.4081C207.264 49.2292 205.577 53.7831 202.203 57.0699C198.868 60.3566 194.474 62 189.02 62Z" fill="url(#paint1_linear_166_131)"/>
<path d="M238.973 61.3466H230.145L232.146 56.1195C232.774 54.8523 233.676 54.2187 234.853 54.2187H238.326C240.248 54.2187 241.798 53.7435 242.975 52.7931C244.191 51.8428 244.799 50.5162 244.799 48.8134C244.799 47.2294 244.211 45.9424 243.034 44.9525C241.896 43.9625 240.326 43.4675 238.326 43.4675H230.263L232.028 38.6562C232.656 37.389 233.578 36.7554 234.794 36.7554H237.502C239.228 36.7554 240.66 36.3396 241.798 35.508C242.935 34.6368 243.504 33.4092 243.504 31.8253C243.504 30.2413 242.935 29.0335 241.798 28.2019C240.66 27.3307 239.228 26.8951 237.502 26.8951H227.203V61.3466H218.669V19.7672H238.031C242.112 19.7672 245.446 20.8166 248.036 22.9154C250.665 25.0142 251.979 27.7663 251.979 31.1719C251.979 33.0726 251.508 34.7754 250.566 36.2802C249.664 37.7454 248.448 38.9531 246.918 39.9035C248.84 40.8539 250.39 42.1409 251.567 43.7645C252.783 45.3484 253.391 47.1898 253.391 49.2886C253.391 52.9317 252.057 55.8621 249.389 58.0797C246.761 60.2576 243.289 61.3466 238.973 61.3466Z" fill="url(#paint2_linear_166_131)"/>
<path d="M144.996 7.80563V6.90588H141.246C141.144 6.90588 141.042 6.89945 140.947 6.86732L142.278 6.85446L140.851 6.84161C140.73 6.7902 140.616 6.72593 140.507 6.64881L142.405 6.62953L140.463 6.60382C140.399 6.55241 140.342 6.49456 140.297 6.42387L142.532 6.40459L140.265 6.37888C140.221 6.32104 140.195 6.2632 140.163 6.20536L142.66 6.17965L140.144 6.15394C140.138 6.14752 140.138 6.14109 140.138 6.13467C140.113 6.08325 140.1 6.03826 140.087 5.98685L142.787 5.95471L140.074 5.92901C140.068 5.87117 140.055 5.81975 140.055 5.76191L142.914 5.72978L140.055 5.70407V5.53697L143.042 5.50484L140.055 5.4727V5.31204L141.577 5.29276V5.36345H145.334C145.831 5.36345 146.27 5.68479 146.442 6.13467C146.493 6.26963 146.525 6.41744 146.525 6.57169V9.34806H140.055V9.33521L140.883 9.32235L140.055 9.3095V9.11027L141.01 9.10384L140.055 9.08456V8.89176L141.144 8.87248L140.055 8.85962V8.66682L141.271 8.64754L140.055 8.63468V8.44831L141.392 8.42903L140.055 8.40975V8.21694L141.52 8.20409L140.055 8.18481V7.99843L141.647 7.97273L140.055 7.95987V7.7735L141.577 7.75421V7.80563H144.996ZM141.577 7.74779L140.055 7.73493V7.55498L141.577 7.52928V7.74779ZM141.577 7.52285L140.055 7.50357V7.35575H141.577V7.52285ZM141.577 5.26705L140.055 5.24777V5.0871L141.577 5.07424V5.26705ZM141.577 5.04211L140.055 5.02283V4.86859L141.577 4.84931V5.04211ZM141.577 4.81075L140.055 4.79789V4.63722L141.577 4.6308V4.81075ZM141.577 4.58581L140.055 4.57296V4.41871L143.672 4.38658L140.055 4.34802V4.19377L143.799 4.15521L140.055 4.12308C140.055 4.07167 140.055 4.02025 140.068 3.96884L143.927 3.93028L140.081 3.89814C140.087 3.84673 140.1 3.79531 140.119 3.7439L144.054 3.71177L140.144 3.6732C140.164 3.62179 140.189 3.56395 140.214 3.51896L144.181 3.48683L140.265 3.44827C140.304 3.39043 140.342 3.33901 140.386 3.29402L144.309 3.26189L140.456 3.22333C140.526 3.16549 140.603 3.11407 140.679 3.06909L144.436 3.03053L140.819 3.00482C140.953 2.9534 141.093 2.92127 141.246 2.92127H146.525V4.91357H144.996V4.4637H141.577V4.58581Z" fill="url(#paint3_linear_166_131)"/>
<path d="M152.601 4.58581L151.079 4.57296V4.41229L152.601 4.40586V4.58581ZM152.601 4.62437V4.81717L151.079 4.79789V4.64365L152.601 4.62437ZM152.601 4.84931V5.04211L151.079 5.02283V4.86216L152.601 4.84931ZM152.601 5.06782V5.26705L151.079 5.24777V5.0871L152.601 5.06782ZM152.601 5.29918V5.49199L151.079 5.47913V5.31204L152.601 5.29918ZM152.601 5.51769V5.71692L151.079 5.70407V5.53697L152.601 5.51769ZM152.601 5.74263V5.94186L151.079 5.92901V5.76191L152.601 5.74263ZM152.601 5.96114V6.1668L151.079 6.14752V5.98042L152.601 5.96114ZM152.601 6.19251V6.39174L151.079 6.37888V6.20536L152.601 6.19251ZM152.601 6.41102V6.61667L151.079 6.60382V6.4303L152.601 6.41102ZM152.601 6.63595V6.84804L151.079 6.82876V6.65523L152.601 6.63595ZM152.601 6.85446V7.07298L151.079 7.05369V6.87374L152.601 6.85446ZM152.601 7.08583V7.29791L151.079 7.27863V7.09868L152.601 7.08583ZM152.601 7.30434V7.52285L151.079 7.51V7.33005L152.601 7.30434ZM152.601 7.52928V7.74779L151.079 7.73493V7.54856L152.601 7.52928ZM152.601 7.74779V7.82491H156.013V6.92516H157.542V8.16553C157.542 8.82106 157.007 9.36734 156.345 9.36734H151.079V9.33521L151.779 9.32235L151.079 9.3095V9.11027L151.906 9.09741L151.079 9.08456V8.88533L152.027 8.8789L151.079 8.85962V8.66682L152.155 8.64754L151.079 8.63468V8.44188L152.282 8.4226L151.079 8.40975V8.22337L152.409 8.20409L151.079 8.18481V7.99201L152.537 7.97915L151.079 7.95987V7.7735L152.601 7.74779ZM151.079 4.34802V4.19377L152.601 4.17449V4.36087L151.079 4.34802ZM151.079 4.12308V3.96884L152.601 3.95598V4.13593L151.079 4.12308ZM151.079 3.89814V3.7439L152.601 3.73105V3.911L151.079 3.89814ZM151.079 3.6732V3.51896L152.601 3.50611V3.68606L151.079 3.6732ZM151.079 3.44827V3.29402L152.601 3.28117V3.46112L151.079 3.44827ZM151.079 3.2169V3.07551L152.601 3.05623V3.23618L151.079 3.2169ZM151.079 2.99839V2.94055H152.601V3.01125L151.079 2.99839Z" fill="url(#paint4_linear_166_131)"/>
<path d="M167.037 7.80563V6.90588H163.287C163.185 6.90588 163.083 6.89945 162.987 6.86732L164.318 6.85446L162.892 6.84161C162.771 6.7902 162.656 6.72593 162.548 6.64881L164.445 6.62953L162.503 6.60382C162.44 6.55241 162.382 6.49456 162.338 6.42387L164.573 6.40459L162.306 6.37888C162.261 6.32104 162.236 6.2632 162.204 6.20536L164.7 6.17965L162.185 6.15394C162.179 6.14752 162.179 6.14109 162.179 6.13467C162.153 6.08325 162.14 6.03826 162.128 5.98685L164.828 5.95471L162.115 5.92901C162.109 5.87117 162.096 5.81975 162.096 5.76191L164.955 5.72978L162.096 5.70407V5.53697L165.082 5.50484L162.096 5.4727V5.31204L163.618 5.29276V5.36345H167.375C167.871 5.36345 168.311 5.68479 168.482 6.13467C168.533 6.26963 168.565 6.41744 168.565 6.57169V9.34806H162.096V9.33521L162.924 9.32235L162.096 9.3095V9.11027L163.051 9.10384L162.096 9.08456V8.89176L163.185 8.87248L162.096 8.85962V8.66682L163.312 8.64754L162.096 8.63468V8.44831L163.433 8.42903L162.096 8.40975V8.21694L163.56 8.20409L162.096 8.18481V7.99843L163.688 7.97273L162.096 7.95987V7.7735L163.618 7.75421V7.80563H167.037ZM163.618 7.74779L162.096 7.73493V7.55498L163.618 7.52928V7.74779ZM163.618 7.52285L162.096 7.50357V7.35575H163.618V7.52285ZM163.618 5.26705L162.096 5.24777V5.0871L163.618 5.07424V5.26705ZM163.618 5.04211L162.096 5.02283V4.86859L163.618 4.84931V5.04211ZM163.618 4.81075L162.096 4.79789V4.63722L163.618 4.6308V4.81075ZM163.618 4.58581L162.096 4.57296V4.41871L165.713 4.38658L162.096 4.34802V4.19377L165.84 4.15521L162.096 4.12308C162.096 4.07167 162.096 4.02025 162.109 3.96884L165.967 3.93028L162.121 3.89814C162.128 3.84673 162.14 3.79531 162.16 3.7439L166.095 3.71177L162.185 3.6732C162.204 3.62179 162.23 3.56395 162.255 3.51896L166.222 3.48683L162.306 3.44827C162.344 3.39043 162.382 3.33901 162.427 3.29402L166.349 3.26189L162.497 3.22333C162.567 3.16549 162.643 3.11407 162.72 3.06909L166.477 3.03053L162.86 3.00482C162.994 2.9534 163.134 2.92127 163.287 2.92127H168.565V4.91357H167.037V4.4637H163.618V4.58581Z" fill="url(#paint5_linear_166_131)"/>
<path d="M181.107 6.97657L179.585 6.95729V6.78377L181.107 6.77092V6.97657ZM181.107 6.75164L179.585 6.73236V6.55883L181.107 6.53955V6.75164ZM181.107 6.5267L179.585 6.50742V6.3339L181.107 6.32104V6.5267ZM181.107 6.30176L179.585 6.28248V6.11538L181.107 6.0961V6.30176ZM181.107 6.0704L179.585 6.05754V5.88402L181.107 5.87117V6.0704ZM181.107 5.84546L179.585 5.82618V5.66551L181.107 5.64623V5.84546ZM181.107 5.62052L179.585 5.60124V5.44057L181.107 5.42129V5.62052ZM181.107 5.39558L179.585 5.38273V5.22206L181.107 5.20278V5.39558ZM181.107 5.17065L179.585 5.15779V4.9907L181.107 4.97784V5.17065ZM181.107 4.93928L179.585 4.93286V4.76576L181.107 4.75291V4.93928ZM181.107 4.72077L179.585 4.70149V4.54725L181.107 4.52797V4.72077ZM181.107 4.49583L179.585 4.47655V4.32231L183.201 4.28375L179.585 4.25162V4.13593C179.585 4.12308 179.585 4.11023 179.585 4.09737L183.329 4.06524L179.585 4.02668C179.591 3.97526 179.604 3.92385 179.617 3.87244L183.45 3.8403L179.629 3.80174C179.642 3.75033 179.668 3.69891 179.68 3.6475L183.577 3.61536L179.718 3.5768C179.744 3.52539 179.782 3.47397 179.814 3.42256L183.705 3.384L179.871 3.35187C179.916 3.30045 179.967 3.24904 180.031 3.20405L183.832 3.16549L180.12 3.13335C180.228 3.05623 180.349 3.00482 180.483 2.96626L183.959 2.94055L183.189 2.93412H184.857C185.519 2.93412 186.054 3.47397 186.054 4.13593V4.92643H184.52V4.47655H181.107V4.49583ZM179.585 7.00871L181.107 6.98943V7.20151L179.585 7.18866V7.00871ZM179.585 7.23364L181.107 7.20794V7.43288L179.585 7.40717V7.23364ZM179.585 7.45216L181.107 7.43288V7.65781L179.585 7.63211V7.45216ZM179.585 7.67709L181.107 7.65781V7.81848H184.52V7.36861H186.054V8.15268C186.054 8.81463 185.519 9.35448 184.857 9.35448H180.775C180.584 9.35448 180.4 9.31592 180.241 9.22595H180.413H180.234C180.126 9.16811 180.031 9.09741 179.941 9.01387L180.54 9.00101L179.922 8.99459C179.865 8.93032 179.808 8.86605 179.763 8.79535L180.667 8.7825L179.75 8.76322C179.712 8.70538 179.68 8.63468 179.655 8.56399L180.795 8.55756L179.648 8.53828C179.623 8.48044 179.61 8.41617 179.598 8.34548L180.916 8.3262L179.591 8.31334C179.585 8.26193 179.585 8.21052 179.585 8.15268V8.12697L181.043 8.10126L179.585 8.08841V7.90203L181.177 7.88275L179.585 7.85704V7.67709Z" fill="url(#paint6_linear_166_131)"/>
<path d="M190.608 4.47655V4.32231L194.225 4.28375L190.608 4.25162V4.13593C190.608 4.12308 190.608 4.11023 190.608 4.09737L194.352 4.06524L190.615 4.02668C190.621 3.97526 190.621 3.92385 190.634 3.87244L194.48 3.8403L190.653 3.80174C190.672 3.75033 190.685 3.69891 190.71 3.6475L194.607 3.61536L190.742 3.5768C190.774 3.52539 190.806 3.47397 190.844 3.42256L194.734 3.384L190.895 3.35187C190.946 3.30045 190.997 3.24904 191.054 3.20405L194.862 3.16549L191.149 3.13335C191.258 3.05623 191.379 3.00482 191.506 2.96626L194.989 2.94055L194.212 2.93412H195.88C196.536 2.93412 197.078 3.47397 197.078 4.13593V8.15268C197.078 8.81463 196.536 9.35448 195.88 9.35448H191.805C191.614 9.35448 191.43 9.31592 191.27 9.22595H191.442H191.258C191.156 9.16811 191.048 9.09741 190.965 9.01387L191.563 9.00101L190.952 8.99459C190.888 8.93032 190.837 8.86605 190.793 8.79535L191.691 8.7825L190.774 8.76322C190.742 8.70538 190.704 8.63468 190.678 8.56399L191.818 8.55756L190.672 8.53828C190.646 8.48044 190.634 8.41617 190.621 8.34548L191.945 8.3262L190.621 8.31334C190.615 8.26193 190.608 8.21052 190.608 8.15268V8.12697L192.073 8.10126L190.608 8.08841V7.90203L192.2 7.88275L190.608 7.85704V7.67709L192.136 7.65781V7.81848H195.549V4.47655H192.136V4.49583L190.608 4.47655ZM190.608 4.54725L192.136 4.52797V4.72077L190.608 4.70149V4.54725ZM190.608 4.76576L192.136 4.75291V4.93928L190.608 4.93286V4.76576ZM190.608 4.9907L192.136 4.97784V5.17065L190.608 5.15779V4.9907ZM190.608 5.22206L192.136 5.20278V5.39558L190.608 5.38273V5.22206ZM190.608 5.44057L192.136 5.42129V5.62052L190.608 5.60124V5.44057ZM190.608 5.66551L192.136 5.64623V5.84546L190.608 5.82618V5.66551ZM190.608 5.88402L192.136 5.87117V6.0704L190.608 6.05754V5.88402ZM190.608 6.11538L192.136 6.0961V6.30176L190.608 6.28248V6.11538ZM190.608 6.3339L192.136 6.32104V6.5267L190.608 6.50742V6.3339ZM190.608 6.55883L192.136 6.53955V6.75164L190.608 6.73236V6.55883ZM190.608 6.78377L192.136 6.77092V6.97657L190.608 6.95729V6.78377ZM190.608 7.00871L192.136 6.98943V7.20151L190.608 7.18866V7.00871ZM190.608 7.23364L192.136 7.20794V7.43288L190.608 7.40717V7.23364ZM190.608 7.45216L192.136 7.43288V7.65781L190.608 7.63211V7.45216Z" fill="url(#paint7_linear_166_131)"/>
<path d="M203.16 7.88275L201.632 7.85704V7.67709L203.16 7.65781V7.88275ZM203.16 7.88275V9.35448H201.632V9.2388L202.466 9.22595L201.632 9.21952V9.02029L202.593 9.00101L201.632 8.98816V8.79535L202.72 8.7825L201.632 8.76322V8.57042L202.848 8.55756L201.632 8.53828V8.34548L202.969 8.3262L201.632 8.31334V8.12697L203.096 8.10126L201.632 8.08841V7.90203L203.16 7.88275ZM201.632 7.63211V7.45216L203.16 7.43288V7.65781L201.632 7.63211ZM201.632 7.40717V7.23364L203.16 7.20794V7.43288L201.632 7.40717ZM201.632 7.18866V7.00871L203.16 6.98943V7.20151L201.632 7.18866ZM201.632 6.95729V6.78377L203.16 6.77092V6.97657L201.632 6.95729ZM201.632 6.73236V6.55883L203.16 6.53955V6.75164L201.632 6.73236ZM201.632 6.50742V6.3339L203.16 6.32104V6.5267L201.632 6.50742ZM201.632 6.28248V6.11538L203.16 6.0961V6.30176L201.632 6.28248ZM201.632 6.05754V5.88402L203.16 5.87117V6.0704L201.632 6.05754ZM201.632 5.82618V5.66551L203.16 5.64623V5.84546L201.632 5.82618ZM201.632 5.60124V5.44057L203.16 5.42129V5.62052L201.632 5.60124ZM201.632 5.38273V5.22206L203.16 5.20278V5.39558L201.632 5.38273ZM201.632 5.15779V4.9907L203.16 4.97784V5.17065L201.632 5.15779ZM201.632 4.93286V4.76576L203.16 4.75291V4.93928L201.632 4.93286ZM201.632 4.70149V4.54725L203.16 4.52797V4.72077L201.632 4.70149ZM201.632 4.47655V4.32231L205.255 4.28375L201.632 4.25162V4.13593C201.632 4.12308 201.632 4.11023 201.632 4.09737L205.382 4.06524L201.638 4.02668C201.644 3.97526 201.651 3.92385 201.663 3.87244L205.509 3.8403L201.676 3.80174C201.695 3.75033 201.714 3.69891 201.734 3.6475L205.63 3.61536L201.772 3.5768C201.797 3.52539 201.835 3.47397 201.867 3.42256L205.758 3.384L201.918 3.35187C201.969 3.30045 202.026 3.24904 202.084 3.20405L205.885 3.16549L202.173 3.13335C202.281 3.05623 202.402 3.00482 202.536 2.96626L206.012 2.94055L205.236 2.93412H206.91C207.566 2.93412 208.107 3.47397 208.107 4.13593V9.35448H206.573V4.47655H203.16V4.49583L201.632 4.47655Z" fill="url(#paint8_linear_166_131)"/>
<path d="M214.183 6.97657L212.661 6.95729V6.78377L214.183 6.77092V6.97657ZM214.183 6.75164L212.661 6.73236V6.55883L214.183 6.53955V6.75164ZM214.183 6.5267L212.661 6.50742V6.3339L214.183 6.32104V6.5267ZM214.183 6.30176L212.661 6.28248V6.11538L214.183 6.0961V6.30176ZM214.183 6.0704L212.661 6.05754V5.88402L214.183 5.87117V6.0704ZM214.183 5.84546L212.661 5.82618V5.66551L214.183 5.64623V5.84546ZM214.183 5.62052L212.661 5.60124V5.44057L214.183 5.42129V5.62052ZM214.183 5.39558L212.661 5.38273V5.22206L214.183 5.20278V5.39558ZM214.183 5.17065L212.661 5.15779V4.9907L214.183 4.97784V5.17065ZM214.183 4.93928L212.661 4.93286V4.76576L214.183 4.75291V4.93928ZM214.183 4.72077L212.661 4.70149V4.54725L214.183 4.52797V4.72077ZM214.183 4.49583L212.661 4.47655V4.32231L216.278 4.28375L212.661 4.25162V4.13593C212.661 4.12308 212.661 4.11023 212.661 4.09737L216.405 4.06524L212.661 4.02668C212.668 3.97526 212.68 3.92385 212.693 3.87244L216.526 3.8403L212.706 3.80174C212.719 3.75033 212.744 3.69891 212.757 3.6475L216.654 3.61536L212.795 3.5768C212.82 3.52539 212.859 3.47397 212.89 3.42256L216.781 3.384L212.948 3.35187C212.992 3.30045 213.043 3.24904 213.107 3.20405L216.908 3.16549L213.196 3.13335C213.304 3.05623 213.425 3.00482 213.559 2.96626L217.036 2.94055L216.265 2.93412H217.934C218.596 2.93412 219.131 3.47397 219.131 4.13593V4.92643H217.596V4.47655H214.183V4.49583ZM212.661 7.00871L214.183 6.98943V7.20151L212.661 7.18866V7.00871ZM212.661 7.23364L214.183 7.20794V7.43288L212.661 7.40717V7.23364ZM212.661 7.45216L214.183 7.43288V7.65781L212.661 7.63211V7.45216ZM212.661 7.67709L214.183 7.65781V7.81848H217.596V7.36861H219.131V8.15268C219.131 8.81463 218.596 9.35448 217.934 9.35448H213.852C213.661 9.35448 213.476 9.31592 213.317 9.22595H213.489H213.311C213.202 9.16811 213.107 9.09741 213.018 9.01387L213.616 9.00101L212.999 8.99459C212.941 8.93032 212.884 8.86605 212.84 8.79535L213.744 8.7825L212.827 8.76322C212.789 8.70538 212.757 8.63468 212.731 8.56399L213.871 8.55756L212.725 8.53828C212.699 8.48044 212.687 8.41617 212.674 8.34548L213.992 8.3262L212.668 8.31334C212.661 8.26193 212.661 8.21052 212.661 8.15268V8.12697L214.119 8.10126L212.661 8.08841V7.90203L214.253 7.88275L212.661 7.85704V7.67709Z" fill="url(#paint9_linear_166_131)"/>
<path d="M223.685 4.47655V4.32231L227.308 4.28375L223.685 4.25162V4.13593C223.685 4.12308 223.685 4.11023 223.685 4.09737L227.429 4.06524L223.691 4.02668C223.697 3.97526 223.704 3.92385 223.71 3.87244L227.556 3.8403L223.729 3.80174C223.748 3.75033 223.767 3.69891 223.787 3.6475L227.683 3.61536L223.825 3.5768C223.85 3.52539 223.888 3.47397 223.92 3.42256L227.811 3.384L223.971 3.35187C224.022 3.30045 224.073 3.24904 224.13 3.20405L227.938 3.16549L224.226 3.13335C224.334 3.05623 224.455 3.00482 224.589 2.96626L228.066 2.94055L227.289 2.93412H228.963C229.613 2.93412 230.154 3.47397 230.154 4.13593V4.92643H228.626V4.47655H225.213V4.49583L223.685 4.47655ZM223.685 4.54725L225.213 4.52797V4.72077L223.685 4.70149V4.54725ZM223.685 4.76576L225.213 4.75291V4.93928L223.685 4.93286V4.76576ZM223.685 4.9907L225.213 4.97784V5.17065L223.685 5.15779V4.9907ZM223.685 5.22206L225.213 5.20278V5.3763H229.555V6.91231H228.963L228.626 6.91873H225.213V6.97657L223.685 6.95729V6.78377L225.907 6.75806L223.685 6.73236V6.55883L226.041 6.53313L223.685 6.50742V6.3339L226.168 6.30819L223.685 6.28248V6.11538L226.295 6.08325L223.685 6.05754V5.88402L226.423 5.85831L223.685 5.82618V5.66551L226.544 5.6398L223.685 5.60124V5.44057L226.671 5.40844L223.685 5.38273V5.22206ZM223.685 7.00871L225.213 6.98943V7.20151L223.685 7.18866V7.00871ZM223.685 7.23364L225.213 7.20794V7.43288L223.685 7.40717V7.23364ZM223.685 7.45216L225.213 7.43288V7.65781L223.685 7.63211V7.45216ZM223.685 7.67709L225.213 7.65781V7.81848H228.626V7.36861H230.154V8.15268C230.154 8.81463 229.613 9.35448 228.963 9.35448H224.882C224.691 9.35448 224.506 9.31592 224.347 9.22595H224.519H224.334C224.232 9.16811 224.13 9.09741 224.048 9.01387L224.646 9.00101L224.029 8.99459C223.965 8.93032 223.914 8.86605 223.869 8.79535L224.774 8.7825L223.85 8.76322C223.818 8.70538 223.787 8.63468 223.761 8.56399L224.895 8.55756L223.748 8.53828C223.729 8.48044 223.71 8.41617 223.704 8.34548L225.022 8.3262L223.697 8.31334C223.691 8.26193 223.685 8.21052 223.685 8.15268V8.12697L225.149 8.10126L223.685 8.08841V7.90203L225.277 7.88275L223.685 7.85704V7.67709Z" fill="url(#paint10_linear_166_131)"/>
<path d="M236.236 9.35448H234.708V9.2388L235.536 9.22595L234.708 9.21952V9.02029L235.663 9.00101L234.708 8.98816V8.79535L235.797 8.7825L234.708 8.76322V8.57042L235.924 8.55756L234.708 8.53828V8.34548L236.052 8.3262L234.708 8.31334V8.12697L236.179 8.10126L234.708 8.08841V7.90203L236.236 7.88275V9.35448ZM236.236 7.88275L234.708 7.85704V7.67709L236.236 7.65781V7.88275ZM236.236 7.65781L234.708 7.63211V7.45216L236.236 7.43288V7.65781ZM236.236 7.43288L234.708 7.40717V7.23364L236.236 7.20794V7.43288ZM236.236 7.20151L234.708 7.18866V7.00871L236.236 6.98943V7.20151ZM236.236 6.97657L234.708 6.95729V6.78377L236.937 6.75806L234.708 6.73236V6.55883L237.064 6.53313L234.708 6.50742V6.3339L237.191 6.30819L234.708 6.28248V6.11538L237.312 6.08325L234.708 6.05754V5.88402L237.44 5.85831L234.708 5.82618V5.66551L237.567 5.6398L234.708 5.60124V5.44057L237.694 5.40844L234.708 5.38273V5.22206L236.236 5.20278V5.3763H239.656V4.47655H236.236V4.49583L234.708 4.47655V4.32231L238.325 4.28375L234.708 4.25162V4.13593C234.708 4.12308 234.708 4.11023 234.708 4.09737L238.452 4.06524L234.714 4.02668C234.714 3.97526 234.727 3.92385 234.74 3.87244L238.58 3.8403L234.759 3.80174C234.772 3.75033 234.791 3.69891 234.816 3.6475L238.713 3.61536L234.848 3.5768C234.88 3.52539 234.906 3.47397 234.944 3.42256L238.841 3.384L235.001 3.35187C235.046 3.30045 235.103 3.24904 235.16 3.20405L238.962 3.16549L235.249 3.13335C235.358 3.05623 235.479 3.00482 235.606 2.96626L239.089 2.94055L238.312 2.93412H239.987C240.643 2.93412 241.177 3.47397 241.177 4.13593V5.7105C241.177 5.86474 241.152 6.00613 241.095 6.14752C241.082 6.18608 241.063 6.23749 241.037 6.27605C240.84 6.66166 240.439 6.91231 239.987 6.91231L239.656 6.91873V6.91231H236.236V6.97657ZM234.708 4.54725L236.236 4.52797V4.72077L234.708 4.70149V4.54725ZM234.708 4.76576L236.236 4.75291V4.93928L234.708 4.93286V4.76576ZM234.708 4.9907L236.236 4.97784V5.17065L234.708 5.15779V4.9907Z" fill="url(#paint11_linear_166_131)"/>
<path d="M246.536 2.96626L250.019 2.94055L249.248 2.93412H250.917C251.573 2.93412 252.107 3.47397 252.107 4.13593V4.92643H250.579V4.47655H249.637V9.35448H248.115V6.30819V6.08325V5.86474L248.37 5.85831H248.115V5.6398H248.497L248.115 5.63338V5.41486L248.624 5.40844H248.115V5.18993L248.752 5.1835L248.115 5.17707V4.97142L248.879 4.95856L248.115 4.95214V4.74648L249.006 4.74005L248.115 4.7272V4.52154L249.134 4.51511L248.115 4.50226V4.47655H247.166V4.49583L245.644 4.47655V4.32231L249.255 4.28375L245.644 4.25162V4.13593C245.644 4.12308 245.644 4.11023 245.644 4.09737L249.382 4.06524L245.651 4.02668C245.651 3.97526 245.657 3.92385 245.67 3.87244L249.51 3.8403L245.689 3.80174C245.708 3.75033 245.721 3.69891 245.746 3.6475L249.637 3.61536L245.778 3.5768C245.81 3.52539 245.835 3.47397 245.874 3.42256L249.771 3.384L245.931 3.35187C245.976 3.30045 246.033 3.24904 246.09 3.20405L249.898 3.16549L246.179 3.13335C246.288 3.05623 246.415 3.00482 246.536 2.96626ZM245.644 4.54725L247.166 4.52797V4.72077L245.644 4.70149V4.54725ZM245.644 4.76576L247.166 4.75291V4.92643H245.644V4.76576Z" fill="url(#paint12_linear_166_131)"/>
<path d="M43.8487 11.0424H0V0H51.0555L47.9296 8.23798C47.0613 10.1076 45.701 11.0424 43.8487 11.0424ZM12.5902 61.3466H0V25.3274H39.1599L36.4682 33.0395C35.5999 35.026 34.2396 36.0192 32.3872 36.0192H14.7609C14.1821 36.0192 13.6611 36.2237 13.198 36.6327C12.7928 37.0417 12.5902 37.5675 12.5902 38.2102V61.3466Z" fill="url(#paint13_linear_166_131)"/>
<path d="M69.5616 61.3466H56.9714V0H65.2201C66.4358 0 67.4488 0.43819 68.2592 1.31457C69.1275 2.13253 69.5616 3.15497 69.5616 4.3819V61.3466Z" fill="url(#paint14_linear_166_131)"/>
<path d="M111.651 61.3466H99.0604V11.2177H78.5688V0H134.921L131.621 8.41325C130.695 10.2829 129.364 11.2177 127.627 11.2177H111.651V61.3466Z" fill="url(#paint15_linear_166_131)"/>
<defs>
<linearGradient id="paint0_linear_166_131" x1="126.696" y1="0" x2="126.696" y2="62" gradientUnits="userSpaceOnUse">
<stop offset="0.229167" stop-color="white"/>
<stop offset="1" stop-color="white" stop-opacity="0"/>
</linearGradient>
<linearGradient id="paint1_linear_166_131" x1="126.696" y1="0" x2="126.696" y2="62" gradientUnits="userSpaceOnUse">
<stop offset="0.229167" stop-color="white"/>
<stop offset="1" stop-color="white" stop-opacity="0"/>
</linearGradient>
<linearGradient id="paint2_linear_166_131" x1="126.696" y1="0" x2="126.696" y2="62" gradientUnits="userSpaceOnUse">
<stop offset="0.229167" stop-color="white"/>
<stop offset="1" stop-color="white" stop-opacity="0"/>
</linearGradient>
<linearGradient id="paint3_linear_166_131" x1="126.696" y1="0" x2="126.696" y2="62" gradientUnits="userSpaceOnUse">
<stop stop-color="#B81D24"/>
<stop offset="1" stop-color="#B81D24" stop-opacity="0"/>
</linearGradient>
<linearGradient id="paint4_linear_166_131" x1="126.696" y1="0" x2="126.696" y2="62" gradientUnits="userSpaceOnUse">
<stop stop-color="#B81D24"/>
<stop offset="1" stop-color="#B81D24" stop-opacity="0"/>
</linearGradient>
<linearGradient id="paint5_linear_166_131" x1="126.696" y1="0" x2="126.696" y2="62" gradientUnits="userSpaceOnUse">
<stop stop-color="#B81D24"/>
<stop offset="1" stop-color="#B81D24" stop-opacity="0"/>
</linearGradient>
<linearGradient id="paint6_linear_166_131" x1="126.696" y1="0" x2="126.696" y2="62" gradientUnits="userSpaceOnUse">
<stop stop-color="#B81D24"/>
<stop offset="1" stop-color="#B81D24" stop-opacity="0"/>
</linearGradient>
<linearGradient id="paint7_linear_166_131" x1="126.696" y1="0" x2="126.696" y2="62" gradientUnits="userSpaceOnUse">
<stop stop-color="#B81D24"/>
<stop offset="1" stop-color="#B81D24" stop-opacity="0"/>
</linearGradient>
<linearGradient id="paint8_linear_166_131" x1="126.696" y1="0" x2="126.696" y2="62" gradientUnits="userSpaceOnUse">
<stop stop-color="#B81D24"/>
<stop offset="1" stop-color="#B81D24" stop-opacity="0"/>
</linearGradient>
<linearGradient id="paint9_linear_166_131" x1="126.696" y1="0" x2="126.696" y2="62" gradientUnits="userSpaceOnUse">
<stop stop-color="#B81D24"/>
<stop offset="1" stop-color="#B81D24" stop-opacity="0"/>
</linearGradient>
<linearGradient id="paint10_linear_166_131" x1="126.696" y1="0" x2="126.696" y2="62" gradientUnits="userSpaceOnUse">
<stop stop-color="#B81D24"/>
<stop offset="1" stop-color="#B81D24" stop-opacity="0"/>
</linearGradient>
<linearGradient id="paint11_linear_166_131" x1="126.696" y1="0" x2="126.696" y2="62" gradientUnits="userSpaceOnUse">
<stop stop-color="#B81D24"/>
<stop offset="1" stop-color="#B81D24" stop-opacity="0"/>
</linearGradient>
<linearGradient id="paint12_linear_166_131" x1="126.696" y1="0" x2="126.696" y2="62" gradientUnits="userSpaceOnUse">
<stop stop-color="#B81D24"/>
<stop offset="1" stop-color="#B81D24" stop-opacity="0"/>
</linearGradient>
<linearGradient id="paint13_linear_166_131" x1="65.063" y1="-33.8867" x2="65.063" y2="81.7955" gradientUnits="userSpaceOnUse">
<stop offset="0.208333" stop-color="#A50008"/>
<stop offset="1" stop-color="#A50008" stop-opacity="0"/>
</linearGradient>
<linearGradient id="paint14_linear_166_131" x1="65.063" y1="-33.8867" x2="65.063" y2="81.7955" gradientUnits="userSpaceOnUse">
<stop offset="0.208333" stop-color="#A50008"/>
<stop offset="1" stop-color="#A50008" stop-opacity="0"/>
</linearGradient>
<linearGradient id="paint15_linear_166_131" x1="65.063" y1="-33.8867" x2="65.063" y2="81.7955" gradientUnits="userSpaceOnUse">
<stop offset="0.208333" stop-color="#A50008"/>
<stop offset="1" stop-color="#A50008" stop-opacity="0"/>
</linearGradient>
</defs>
</svg>
